<?xml version="1.0" standalone="no"?>
<!DOCTYPE svg PUBLIC "-//W3C//DTD SVG 20010904//EN"
 "http://www.w3.org/TR/2001/REC-SVG-20010904/DTD/svg10.dtd">
<svg version="1.0" xmlns="http://www.w3.org/2000/svg"
 width="229.000000pt" height="260.000000pt" viewBox="0 0 229.000000 260.000000"
 preserveAspectRatio="xMidYMid meet">

<g transform="translate(0.000000,260.000000) scale(0.100000,-0.100000)"
fill="#000000" stroke="none">
<path d="M985 2533 c-51 -7 -221 -51 -293 -76 -120 -42 -269 -136 -351 -221
-19 -20 -40 -36 -45 -36 -17 0 -112 -139 -148 -216 -29 -62 -33 -81 -38 -183
-5 -112 -5 -114 19 -122 37 -15 791 -11 791 4 0 6 -12 46 -27 89 l-28 78 -239
0 -239 0 6 36 c8 49 60 134 123 203 51 56 185 143 234 154 14 3 68 16 120 30
244 65 490 57 697 -24 43 -17 91 -36 107 -42 44 -16 174 -112 238 -174 l56
-56 111 -3 c61 -2 112 0 115 4 19 31 -205 271 -331 355 -75 50 -204 117 -225
117 -7 0 -56 14 -108 30 -150 48 -404 72 -545 53z"/>
<path d="M820 2150 c0 -5 5 -10 11 -10 5 0 7 5 4 10 -3 6 -8 10 -11 10 -2 0
-4 -4 -4 -10z"/>
<path d="M1126 1841 c-5 -8 1 -32 21 -91 5 -14 33 59 33 88 0 14 -46 17 -54 3z"/>
<path d="M1446 1838 c-3 -7 -11 -35 -20 -62 -9 -27 -16 -60 -16 -73 l0 -24
273 1 c233 1 272 -1 275 -14 6 -28 -51 -121 -112 -181 -70 -70 -127 -106 -223
-141 -65 -24 -92 -32 -228 -69 -86 -23 -265 -38 -370 -31 -79 5 -123 14 -284
56 -85 22 -233 111 -325 195 l-38 35 -129 0 c-71 0 -129 -3 -129 -6 0 -4 20
-36 44 -73 45 -66 107 -133 144 -155 11 -6 45 -30 76 -54 105 -80 260 -142
446 -178 134 -27 491 -27 600 -1 91 21 218 56 245 67 147 58 233 117 354 238
75 76 101 110 129 171 34 71 36 84 40 194 l4 117 -376 0 c-293 0 -377 -3 -380
-12z"/>
<path d="M159 909 c-20 -20 -62 -184 -54 -210 6 -16 19 -19 127 -21 102 -3
123 -6 132 -20 8 -13 8 -23 0 -35 -10 -15 -30 -18 -138 -21 l-127 -3 -15 -34
c-28 -67 -31 -65 149 -65 190 0 182 -3 215 100 30 96 34 118 22 140 -9 17 -23
20 -127 22 -95 2 -118 6 -126 20 -8 12 -7 21 2 32 11 13 37 16 138 16 l124 0
15 36 c8 20 14 40 12 45 -2 6 -73 11 -168 12 -139 2 -167 0 -181 -14z"/>
<path d="M581 912 c-5 -10 -22 -62 -39 -117 -17 -55 -42 -138 -56 -184 -34
-111 -34 -111 15 -111 37 0 41 3 56 38 8 20 22 58 30 85 l14 47 133 0 c114 0
135 2 148 18 34 39 72 212 50 226 -5 3 -85 8 -176 10 -147 4 -167 2 -175 -12z
m253 -97 c12 -31 -22 -45 -109 -45 -46 0 -87 4 -90 10 -3 5 -1 19 5 30 9 18
21 20 99 20 69 0 90 -3 95 -15z"/>
<path d="M997 886 c-8 -25 -13 -47 -9 -50 3 -3 65 -6 139 -6 110 0 135 -3 139
-15 14 -35 -11 -42 -143 -39 -70 1 -135 -2 -145 -7 -19 -11 -68 -157 -68 -205
0 -63 7 -65 194 -62 l169 3 55 187 c47 159 53 192 44 213 l-12 25 -174 0 -174
0 -15 -44z m227 -215 c3 -4 0 -22 -7 -40 l-11 -31 -98 0 c-88 0 -98 2 -98 18
0 21 19 48 40 55 25 9 168 8 174 -2z"/>
<path d="M1436 922 c-5 -8 -58 -188 -76 -257 -4 -16 -15 -56 -24 -87 -10 -32
-15 -62 -11 -68 9 -14 72 -12 81 2 5 7 27 80 50 163 l41 150 93 3 c51 1 97 -1
101 -5 11 -11 -29 -165 -46 -178 -13 -10 -51 -123 -43 -130 1 -2 25 -5 52 -6
57 -4 52 -12 96 151 16 58 37 133 46 167 17 60 17 63 -1 83 -17 19 -29 20
-186 20 -92 0 -170 -4 -173 -8z"/>
<path d="M1860 913 c-20 -14 -66 -193 -57 -218 5 -11 30 -15 118 -17 94 -3
114 -6 123 -20 8 -13 8 -23 0 -35 -9 -15 -31 -19 -130 -23 l-119 -5 -18 -38
c-10 -21 -15 -42 -12 -47 4 -6 77 -10 170 -10 160 0 165 1 179 23 26 41 57
153 54 193 l-3 39 -117 3 c-124 3 -146 11 -133 51 6 19 16 21 137 23 l130 3
13 40 c8 21 12 41 10 43 -2 2 -77 5 -166 6 -113 1 -167 -3 -179 -11z"/>
<path d="M70 440 c0 -7 352 -10 1035 -10 683 0 1035 3 1035 10 0 7 -352 10
-1035 10 -683 0 -1035 -3 -1035 -10z"/>
</g>
</svg>
